# xmcd
#
# Track frame offsets:
#	150
#	9437
#	19142
#	29215
#	41990
#	52047
#	64967
#	79472
#	96060
#	109345
#	122897
#	134410
#	149330
#	160820
#	174252
#	189805
#	205732
#	220952
#	234502
#	245925
#	258510
#	267662
#	278925
#
# Disc length: 3920 seconds
#
# Revision: 9
# Processed by: cddbd v1.5.2PL0 Copyright (c) Steve Scherf et al.
# Submitted via: EasyCDDAExtractor 15.3.0.1
#
DISCID=680f4e17
DTITLE=Various Artist - Chess Soul - A Decade Of Chicago's Finest  [CD 1-2]
DYEAR=1998
DGENRE=Soul
TTITLE0=Jan Bradley - Mama Didn't Lie  [1962]
TTITLE1=Billy Stewart - Strange Feeling  [1963]
TTITLE2=Cookie and The Cupcakes - I've Been So Lonely  [1963]
TTITLE3=Sugar Pie DeSanto - Soulful Dress  [1964]
TTITLE4=Johnny Nash - Love Ain't Nothin' (But A Monkey On Your Back)  [1964]
TTITLE5=The Kolettes - Who's That Guy?  [1964]
TTITLE6=Tony Clark - Ain't Love Good, Ain't Love Proud  [1964]
TTITLE7=Mitty Collier - I Had A Talk With My Man  [1964]
TTITLE8=The Gems - I Can't Help Myself  [1964]
TTITLE9=Fontella Bass and Bobby McClure - Don't Mess Up A Good Thing  [1964]
TTITLE10=The Radiants - Voice Your Choice  [1964]
TTITLE11=Jackie Ross - Selfish One  [1964]
TTITLE12=Tony Clark - The Entertainer  [1964]
TTITLE13=Billy Stewart - I Do Love You  [1964]
TTITLE14=James Phelps - Love Is A Five Letter Word  [1965]
TTITLE15=Fontella Bass - The Soul Of A Man  [1965]
TTITLE16=The Knight Brothers - Temptation 'Bout To Get Me  [1965]
TTITLE17=Etta James and Sugar Pie DeSanto - Do I Make Myself Clear?  [1965]
TTITLE18=Jackie Ross - Take Me For A Little While  [1965]
TTITLE19=The Valentinos - What About Me ¿  [1965]
TTITLE20=Mitty Collier - I'm Satisfied  [1965]
TTITLE21=Bobby Moore and The Rhythm Aces - Searcing For My Love  [1965]
TTITLE22=Etta James - Only Time Will Tell  [1965]
EXTD=YEAR: 1998
EXTT0=
EXTT1=
EXTT2=
EXTT3=
EXTT4=
EXTT5=
EXTT6=
EXTT7=
EXTT8=
EXTT9=
EXTT10=
EXTT11=
EXTT12=
EXTT13=
EXTT14=
EXTT15=
EXTT16=
EXTT17=
EXTT18=
EXTT19=
EXTT20=
EXTT21=
EXTT22=
PLAYORDER=
